# xmcd CD database file
#
# Track frame offsets:
#	192
#	22730
#	40955
#	59105
#	79355
#	91805
#	115805
#	138905
#	152705
#	176592
#
# Disc length: 2724 seconds
#
# Revision: 0
# Processed by: cddbd v1.4PL0 Copyright (c) Steve Scherf et al.
# Submitted via: CDex 1.40Beta9
#
DISCID=7c0aa20a
DTITLE=Ann Burton - Am I Blue
DYEAR=1993
DGENRE=Blues
TTITLE0=Can't face the music
TTITLE1=I'll be around
TTITLE2=Did I remember
TTITLE3=Laughing at life
TTITLE4=Am I blue
TTITLE5=I wished on the moon
TTITLE6=I don't want to cry anymore
TTITLE7=On the sentimental side
TTITLE8=I get along without you
TTITLE9=I am a fool
EXTD=YEAR: 1993 ID3G: 0
EXTT0=
EXTT1=
EXTT2=
EXTT3=
EXTT4=
EXTT5=
EXTT6=
EXTT7=
EXTT8=
EXTT9=
PLAYORDER=
